<mxfile host="Electron" agent="Mozilla/5.0 (Windows NT 10.0; Win64; x64) AppleWebKit/537.36 (KHTML, like Gecko) draw.io/27.0.9 Chrome/134.0.6998.205 Electron/35.4.0 Safari/537.36" version="27.0.9">
  <diagram name="Página-1" id="Rr1yMRYa_wLxG5Cbfiij">
    <mxGraphModel dx="872" dy="529" grid="1" gridSize="10" guides="1" tooltips="1" connect="1" arrows="1" fold="1" page="1" pageScale="1" pageWidth="827" pageHeight="1169" math="0" shadow="0">
      <root>
        <mxCell id="0" />
        <mxCell id="1" parent="0" />
        <mxCell id="y3w5EMOF8Q3d0UvZxCOe-1" style="edgeStyle=orthogonalEdgeStyle;rounded=0;orthogonalLoop=1;jettySize=auto;html=1;entryX=0;entryY=0.75;entryDx=0;entryDy=0;" parent="1" source="y3w5EMOF8Q3d0UvZxCOe-2" target="y3w5EMOF8Q3d0UvZxCOe-24" edge="1">
          <mxGeometry relative="1" as="geometry" />
        </mxCell>
        <mxCell id="y3w5EMOF8Q3d0UvZxCOe-2" value="" style="rounded=1;whiteSpace=wrap;html=1;" parent="1" vertex="1">
          <mxGeometry x="145" y="260" width="630" height="490" as="geometry" />
        </mxCell>
        <mxCell id="y3w5EMOF8Q3d0UvZxCOe-3" value="" style="rounded=1;whiteSpace=wrap;html=1;" parent="1" vertex="1">
          <mxGeometry x="305" y="620" width="310" height="110" as="geometry" />
        </mxCell>
        <mxCell id="y3w5EMOF8Q3d0UvZxCOe-4" value="&lt;font style=&quot;font-size: 18px;&quot;&gt;exit-handler-1&lt;/font&gt;" style="rounded=1;whiteSpace=wrap;html=1;fillColor=#dae8fc;strokeColor=#6c8ebf;" parent="1" vertex="1">
          <mxGeometry x="395" y="260" width="120" height="30" as="geometry" />
        </mxCell>
        <mxCell id="y3w5EMOF8Q3d0UvZxCOe-5" style="edgeStyle=orthogonalEdgeStyle;rounded=0;orthogonalLoop=1;jettySize=auto;html=1;" parent="1" source="y3w5EMOF8Q3d0UvZxCOe-6" target="y3w5EMOF8Q3d0UvZxCOe-8" edge="1">
          <mxGeometry relative="1" as="geometry" />
        </mxCell>
        <mxCell id="y3w5EMOF8Q3d0UvZxCOe-6" value="&lt;font style=&quot;font-size: 18px;&quot;&gt;GET DATA&lt;/font&gt;&lt;div&gt;&lt;font style=&quot;font-size: 18px;&quot;&gt;SQL o NO SQL&lt;/font&gt;&lt;/div&gt;" style="rounded=1;whiteSpace=wrap;html=1;fillColor=#dae8fc;strokeColor=#6c8ebf;" parent="1" vertex="1">
          <mxGeometry x="355" y="300" width="180" height="40" as="geometry" />
        </mxCell>
        <mxCell id="y3w5EMOF8Q3d0UvZxCOe-7" style="edgeStyle=orthogonalEdgeStyle;rounded=0;orthogonalLoop=1;jettySize=auto;html=1;entryX=0;entryY=0.5;entryDx=0;entryDy=0;" parent="1" source="y3w5EMOF8Q3d0UvZxCOe-8" target="y3w5EMOF8Q3d0UvZxCOe-11" edge="1">
          <mxGeometry relative="1" as="geometry" />
        </mxCell>
        <mxCell id="y3w5EMOF8Q3d0UvZxCOe-8" value="&lt;font style=&quot;font-size: 18px;&quot;&gt;Preguntas y Tunning de Prompt (versiones)&lt;/font&gt;" style="rounded=1;whiteSpace=wrap;html=1;fillColor=#dae8fc;strokeColor=#6c8ebf;" parent="1" vertex="1">
          <mxGeometry x="270" y="390" width="231" height="40" as="geometry" />
        </mxCell>
        <mxCell id="y3w5EMOF8Q3d0UvZxCOe-9" value="" style="edgeStyle=orthogonalEdgeStyle;rounded=0;orthogonalLoop=1;jettySize=auto;html=1;" parent="1" source="y3w5EMOF8Q3d0UvZxCOe-11" target="y3w5EMOF8Q3d0UvZxCOe-14" edge="1">
          <mxGeometry relative="1" as="geometry" />
        </mxCell>
        <mxCell id="y3w5EMOF8Q3d0UvZxCOe-10" value="" style="edgeStyle=orthogonalEdgeStyle;rounded=0;orthogonalLoop=1;jettySize=auto;html=1;" parent="1" source="y3w5EMOF8Q3d0UvZxCOe-11" target="y3w5EMOF8Q3d0UvZxCOe-14" edge="1">
          <mxGeometry relative="1" as="geometry" />
        </mxCell>
        <mxCell id="y3w5EMOF8Q3d0UvZxCOe-11" value="&lt;font style=&quot;font-size: 18px;&quot;&gt;Pruebas humanas y Evaluación&lt;/font&gt;" style="rounded=1;whiteSpace=wrap;html=1;fillColor=#dae8fc;strokeColor=#6c8ebf;" parent="1" vertex="1">
          <mxGeometry x="560" y="430" width="170" height="40" as="geometry" />
        </mxCell>
        <mxCell id="y3w5EMOF8Q3d0UvZxCOe-12" value="" style="edgeStyle=orthogonalEdgeStyle;rounded=0;orthogonalLoop=1;jettySize=auto;html=1;" parent="1" source="y3w5EMOF8Q3d0UvZxCOe-14" target="y3w5EMOF8Q3d0UvZxCOe-15" edge="1">
          <mxGeometry relative="1" as="geometry" />
        </mxCell>
        <mxCell id="y3w5EMOF8Q3d0UvZxCOe-13" value="" style="edgeStyle=orthogonalEdgeStyle;rounded=0;orthogonalLoop=1;jettySize=auto;html=1;" parent="1" source="y3w5EMOF8Q3d0UvZxCOe-14" edge="1">
          <mxGeometry relative="1" as="geometry">
            <mxPoint x="415" y="540" as="targetPoint" />
          </mxGeometry>
        </mxCell>
        <mxCell id="y3w5EMOF8Q3d0UvZxCOe-14" value="&lt;font style=&quot;font-size: 18px;&quot;&gt;Optimización inferencia y tiempos&lt;/font&gt;" style="rounded=1;whiteSpace=wrap;html=1;fillColor=#dae8fc;strokeColor=#6c8ebf;" parent="1" vertex="1">
          <mxGeometry x="470" y="510" width="115" height="60" as="geometry" />
        </mxCell>
        <mxCell id="y3w5EMOF8Q3d0UvZxCOe-15" value="&lt;font style=&quot;font-size: 18px;&quot;&gt;Métricas&amp;nbsp;&lt;/font&gt;&lt;div&gt;&lt;span style=&quot;font-size: 10px; background-color: transparent; color: light-dark(rgb(0, 0, 0), rgb(255, 255, 255));&quot;&gt;&lt;b&gt;% respuestas correctas&lt;/b&gt;&lt;/span&gt;&lt;div&gt;&lt;font style=&quot;font-size: 10px;&quot;&gt;Alucinación&lt;/font&gt;&lt;/div&gt;&lt;div&gt;&lt;font style=&quot;font-size: 10px;&quot;&gt;Personalización&lt;/font&gt;&lt;/div&gt;&lt;div&gt;&lt;font style=&quot;font-size: 10px;&quot;&gt;Coherencia&lt;/font&gt;&lt;/div&gt;&lt;div&gt;&lt;font style=&quot;font-size: 10px;&quot;&gt;Fluidez&lt;/font&gt;&lt;/div&gt;&lt;div&gt;&lt;font style=&quot;font-size: 10px;&quot;&gt;&lt;b&gt;Latencia (Gerente)&lt;/b&gt;&lt;/font&gt;&lt;/div&gt;&lt;/div&gt;" style="rounded=1;whiteSpace=wrap;html=1;fillColor=#dae8fc;strokeColor=#6c8ebf;" parent="1" vertex="1">
          <mxGeometry x="641" y="520" width="120" height="120" as="geometry" />
        </mxCell>
        <mxCell id="y3w5EMOF8Q3d0UvZxCOe-20" value="" style="edgeStyle=orthogonalEdgeStyle;rounded=0;orthogonalLoop=1;jettySize=auto;html=1;" parent="1" source="y3w5EMOF8Q3d0UvZxCOe-21" target="y3w5EMOF8Q3d0UvZxCOe-23" edge="1">
          <mxGeometry relative="1" as="geometry" />
        </mxCell>
        <mxCell id="y3w5EMOF8Q3d0UvZxCOe-21" value="&lt;font style=&quot;font-size: 18px;&quot;&gt;model upload condition&lt;/font&gt;" style="rounded=1;whiteSpace=wrap;html=1;fillColor=#dae8fc;strokeColor=#6c8ebf;" parent="1" vertex="1">
          <mxGeometry x="359" y="610" width="200" height="30" as="geometry" />
        </mxCell>
        <mxCell id="y3w5EMOF8Q3d0UvZxCOe-22" value="&lt;font style=&quot;font-size: 18px;&quot;&gt;create custom predict (json)&lt;/font&gt;" style="rounded=1;whiteSpace=wrap;html=1;fillColor=#dae8fc;strokeColor=#6c8ebf;" parent="1" vertex="1">
          <mxGeometry x="345" y="670" width="240" height="30" as="geometry" />
        </mxCell>
        <mxCell id="y3w5EMOF8Q3d0UvZxCOe-23" value="&lt;font style=&quot;font-size: 18px;&quot;&gt;save model version prompt, data&lt;/font&gt;" style="rounded=1;whiteSpace=wrap;html=1;fillColor=#dae8fc;strokeColor=#6c8ebf;" parent="1" vertex="1">
          <mxGeometry x="330" y="720" width="280" height="20" as="geometry" />
        </mxCell>
        <mxCell id="y3w5EMOF8Q3d0UvZxCOe-24" value="Notification MAIL&lt;div&gt;exit-handler-1&lt;/div&gt;&lt;div&gt;Success or not succes running&lt;/div&gt;" style="rounded=1;whiteSpace=wrap;html=1;fillColor=#fff2cc;strokeColor=#d6b656;" parent="1" vertex="1">
          <mxGeometry x="755" y="730" width="120" height="60" as="geometry" />
        </mxCell>
        <mxCell id="y3w5EMOF8Q3d0UvZxCOe-29" style="edgeStyle=orthogonalEdgeStyle;rounded=0;orthogonalLoop=1;jettySize=auto;html=1;" parent="1" source="y3w5EMOF8Q3d0UvZxCOe-26" target="y3w5EMOF8Q3d0UvZxCOe-21" edge="1">
          <mxGeometry relative="1" as="geometry" />
        </mxCell>
        <mxCell id="y3w5EMOF8Q3d0UvZxCOe-26" value="&lt;font style=&quot;font-size: 18px;&quot;&gt;Asistente de creación preguntas y respuestas&lt;/font&gt;" style="rounded=1;whiteSpace=wrap;html=1;fillColor=#dae8fc;strokeColor=#6c8ebf;" parent="1" vertex="1">
          <mxGeometry x="238.5" y="500" width="175" height="60" as="geometry" />
        </mxCell>
        <mxCell id="y3w5EMOF8Q3d0UvZxCOe-27" value="&lt;font style=&quot;font-size: 18px;&quot;&gt;Métricas&amp;nbsp;&lt;/font&gt;&lt;div&gt;&lt;span style=&quot;font-size: 10px; background-color: transparent; color: light-dark(rgb(0, 0, 0), rgb(255, 255, 255));&quot;&gt;&lt;b&gt;% respuestas correctas&lt;/b&gt;&lt;/span&gt;&lt;div&gt;&lt;font style=&quot;font-size: 10px;&quot;&gt;Alucinación&lt;/font&gt;&lt;/div&gt;&lt;div&gt;&lt;font style=&quot;font-size: 10px;&quot;&gt;Personalización&lt;/font&gt;&lt;/div&gt;&lt;div&gt;&lt;font style=&quot;font-size: 10px;&quot;&gt;Coherencia&lt;/font&gt;&lt;/div&gt;&lt;div&gt;&lt;font style=&quot;font-size: 10px;&quot;&gt;Fluidez&lt;/font&gt;&lt;/div&gt;&lt;div&gt;&lt;font style=&quot;font-size: 10px;&quot;&gt;&lt;b&gt;Latencia (Gerente)&lt;/b&gt;&lt;/font&gt;&lt;/div&gt;&lt;/div&gt;" style="rounded=1;whiteSpace=wrap;html=1;fillColor=#dae8fc;strokeColor=#6c8ebf;" parent="1" vertex="1">
          <mxGeometry x="170" y="600" width="120" height="120" as="geometry" />
        </mxCell>
        <mxCell id="y3w5EMOF8Q3d0UvZxCOe-28" style="edgeStyle=orthogonalEdgeStyle;rounded=0;orthogonalLoop=1;jettySize=auto;html=1;entryX=0.425;entryY=0.042;entryDx=0;entryDy=0;entryPerimeter=0;" parent="1" source="y3w5EMOF8Q3d0UvZxCOe-26" target="y3w5EMOF8Q3d0UvZxCOe-27" edge="1">
          <mxGeometry relative="1" as="geometry" />
        </mxCell>
      </root>
    </mxGraphModel>
  </diagram>
</mxfile>
